<?xml version="1.0" encoding="UTF-8" standalone="no"?>
<!DOCTYPE svg PUBLIC "-//W3C//DTD SVG 1.1//EN"
 "http://www.w3.org/Graphics/SVG/1.1/DTD/svg11.dtd">
<!-- Generated by graphviz version 8.1.0 (20230707.0739)
 -->
<!-- Pages: 1 -->
<svg width="452pt" height="806pt"
 viewBox="0.00 0.00 451.50 806.00" xmlns="http://www.w3.org/2000/svg" xmlns:xlink="http://www.w3.org/1999/xlink">
<g id="graph0" class="graph" transform="scale(1 1) rotate(0) translate(4 802)">
<polygon fill="white" stroke="none" points="-4,4 -4,-802 447.5,-802 447.5,4 -4,4"/>
<text text-anchor="middle" x="221.75" y="-765.5" font-family="Times New Roman,serif" font-size="30.00">dependencies&#45;graph&#45;synrgychapter7</text>
<text text-anchor="middle" x="221.75" y="-731" font-family="Times New Roman,serif" font-size="30.00"> </text>
<!-- :app -->
<g id="node1" class="node">
<title>:app</title>
<ellipse fill="#eeeeee" stroke="black" cx="170.71" cy="-703" rx="27" ry="18"/>
<text text-anchor="middle" x="170.71" y="-697.58" font-family="Times New Roman,serif" font-size="14.00">:app</text>
</g>
<!-- :common -->
<g id="node2" class="node">
<title>:common</title>
<ellipse fill="#eeeeee" stroke="black" cx="184.71" cy="-18" rx="45.57" ry="18"/>
<text text-anchor="middle" x="184.71" y="-12.57" font-family="Times New Roman,serif" font-size="14.00">:common</text>
</g>
<!-- :app&#45;&gt;:common -->
<g id="edge2" class="edge">
<title>:app&#45;&gt;:common</title>
<path fill="none" stroke="black" stroke-dasharray="1,5" d="M166.11,-684.96C155.01,-642.34 127.71,-527.53 127.71,-430 127.71,-430 127.71,-430 127.71,-291 127.71,-199.91 158.71,-95.24 174.98,-46.56"/>
<polygon fill="black" stroke="black" points="178.59,-47.83 178.5,-37.24 171.96,-45.58 178.59,-47.83"/>
</g>
<!-- :presentation -->
<g id="node6" class="node">
<title>:presentation</title>
<ellipse fill="#eeeeee" stroke="black" cx="217.71" cy="-566" rx="57.55" ry="18"/>
<text text-anchor="middle" x="217.71" y="-560.58" font-family="Times New Roman,serif" font-size="14.00">:presentation</text>
</g>
<!-- :app&#45;&gt;:presentation -->
<g id="edge1" class="edge">
<title>:app&#45;&gt;:presentation</title>
<path fill="none" stroke="black" d="M176.56,-685.18C184.48,-662.44 198.69,-621.62 208.16,-594.42"/>
<polygon fill="black" stroke="black" points="211.79,-595.63 211.78,-585.04 205.18,-593.33 211.79,-595.63"/>
</g>
<!-- :data -->
<g id="node3" class="node">
<title>:data</title>
<ellipse fill="#eeeeee" stroke="black" cx="221.71" cy="-292" rx="28.11" ry="18"/>
<text text-anchor="middle" x="221.71" y="-286.57" font-family="Times New Roman,serif" font-size="14.00">:data</text>
</g>
<!-- :data&#45;&gt;:common -->
<g id="edge7" class="edge">
<title>:data&#45;&gt;:common</title>
<path fill="none" stroke="black" stroke-dasharray="1,5" d="M219.34,-273.57C213.1,-227.71 196.18,-103.33 188.54,-47.18"/>
<polygon fill="black" stroke="black" points="191.87,-46.72 187.06,-37.28 184.94,-47.66 191.87,-46.72"/>
</g>
<!-- :domain -->
<g id="node5" class="node">
<title>:domain</title>
<ellipse fill="#eeeeee" stroke="black" cx="275.71" cy="-155" rx="40.09" ry="18"/>
<text text-anchor="middle" x="275.71" y="-149.57" font-family="Times New Roman,serif" font-size="14.00">:domain</text>
</g>
<!-- :data&#45;&gt;:domain -->
<g id="edge6" class="edge">
<title>:data&#45;&gt;:domain</title>
<path fill="none" stroke="black" stroke-dasharray="1,5" d="M228.44,-274.18C237.57,-251.34 254,-210.26 264.88,-183.06"/>
<polygon fill="black" stroke="black" points="268.43,-184.62 268.89,-174.04 261.93,-182.02 268.43,-184.62"/>
</g>
<!-- :di -->
<g id="node4" class="node">
<title>:di</title>
<ellipse fill="#eeeeee" stroke="black" cx="221.71" cy="-429" rx="27" ry="18"/>
<text text-anchor="middle" x="221.71" y="-423.57" font-family="Times New Roman,serif" font-size="14.00">:di</text>
</g>
<!-- :di&#45;&gt;:data -->
<g id="edge8" class="edge">
<title>:di&#45;&gt;:data</title>
<path fill="none" stroke="black" stroke-dasharray="1,5" d="M221.71,-410.63C221.71,-387.95 221.71,-347.96 221.71,-320.98"/>
<polygon fill="black" stroke="black" points="225.21,-321.31 221.71,-311.31 218.21,-321.31 225.21,-321.31"/>
</g>
<!-- :di&#45;&gt;:domain -->
<g id="edge9" class="edge">
<title>:di&#45;&gt;:domain</title>
<path fill="none" stroke="black" stroke-dasharray="1,5" d="M228.16,-411.08C236.53,-388.41 250.99,-346.77 258.71,-310 267.82,-266.58 272.25,-215.19 274.24,-184.12"/>
<polygon fill="black" stroke="black" points="277.79,-184.45 274.89,-174.26 270.8,-184.04 277.79,-184.45"/>
</g>
<!-- :domain&#45;&gt;:common -->
<g id="edge10" class="edge">
<title>:domain&#45;&gt;:common</title>
<path fill="none" stroke="black" stroke-dasharray="1,5" d="M264.55,-137.45C248.93,-114.27 220.39,-71.93 202,-44.65"/>
<polygon fill="black" stroke="black" points="204.45,-43.02 195.96,-36.69 198.64,-46.94 204.45,-43.02"/>
</g>
<!-- :presentation&#45;&gt;:common -->
<g id="edge4" class="edge">
<title>:presentation&#45;&gt;:common</title>
<path fill="none" stroke="black" stroke-dasharray="1,5" d="M211.5,-547.7C203.7,-524.95 190.72,-483.59 185.71,-447 165.22,-297.38 176.63,-115.56 182.21,-46.98"/>
<polygon fill="black" stroke="black" points="185.76,-47.5 183.11,-37.24 178.78,-46.91 185.76,-47.5"/>
</g>
<!-- :presentation&#45;&gt;:di -->
<g id="edge5" class="edge">
<title>:presentation&#45;&gt;:di</title>
<path fill="none" stroke="black" stroke-dasharray="1,5" d="M218.22,-547.63C218.89,-524.95 220.08,-484.96 220.88,-457.98"/>
<polygon fill="black" stroke="black" points="224.4,-458.41 221.19,-448.31 217.4,-458.2 224.4,-458.41"/>
</g>
<!-- :presentation&#45;&gt;:domain -->
<g id="edge3" class="edge">
<title>:presentation&#45;&gt;:domain</title>
<path fill="none" stroke="black" stroke-dasharray="1,5" d="M224.76,-547.72C233.76,-525 249.17,-483.66 257.71,-447 279.69,-352.58 278.85,-236.57 277.04,-184.12"/>
<polygon fill="black" stroke="black" points="280.51,-184.2 276.62,-174.34 273.51,-184.47 280.51,-184.2"/>
</g>
</g>
</svg>
